HIERARCHY
ROOT Hips
{
	OFFSET 0.000000 100.481300 0.000000
	CHANNELS 6 Xposition Yposition Zposition Xrotation Yrotation Zrotation 
	JOINT Spine
	{
		OFFSET -0.279200 12.230698 -2.892100
		CHANNELS 3 Xrotation Yrotation Zrotation
		JOINT Spine1
		{
			OFFSET -0.232667 10.192268 -1.242267
			CHANNELS 3 Xrotation Yrotation Zrotation
			JOINT Spine1_split
			{
				OFFSET -0.232667 10.192268 -1.242267
				CHANNELS 3 Xrotation Yrotation Zrotation
				JOINT Spine2
				{
					OFFSET -0.232667 10.192268 -1.242267
					CHANNELS 3 Xrotation Yrotation Zrotation
					JOINT Neck
					{
						OFFSET -0.418800 17.814194 8.416900
						CHANNELS 3 Xrotation Yrotation Zrotation
						JOINT Head
						{
							OFFSET 0.000000 7.031097 3.806800
							CHANNELS 3 Xrotation Yrotation Zrotation
							JOINT HeadTop_End
							{
								OFFSET 0.000000 24.646606 12.978600
								CHANNELS 3 Xrotation Yrotation Zrotation
								End Site
								{
									OFFSET 0.000000 0.000000 0.000000
								}
							}
						}
					}
					JOINT LeftShoulder
					{
						OFFSET 8.476499 7.247704 -3.868750
						CHANNELS 3 Xrotation Yrotation Zrotation
						JOINT LeftShoulder_split
						{
							OFFSET 8.476499 7.247704 -3.868750
							CHANNELS 3 Xrotation Yrotation Zrotation
							JOINT LeftArm
							{
								OFFSET 9.308998 -2.777710 0.208600
								CHANNELS 3 Xrotation Yrotation Zrotation
								JOINT LeftForeArm
								{
									OFFSET 29.972298 0.000000 0.000000
									CHANNELS 3 Xrotation Yrotation Zrotation
									JOINT LeftHand
									{
										OFFSET 26.026505 0.000000 0.000000
										CHANNELS 3 Xrotation Yrotation Zrotation
										JOINT LeftHandThumb1
										{
											OFFSET 12.240501 -7.147949 9.207150
											CHANNELS 3 Xrotation Yrotation Zrotation
											JOINT LeftHandThumb2
											{
												OFFSET 4.138618 -2.389435 2.389433
												CHANNELS 3 Xrotation Yrotation Zrotation
												JOINT LeftHandThumb3
												{
													OFFSET 2.726913 -1.574387 1.574386
													CHANNELS 3 Xrotation Yrotation Zrotation
													JOINT LeftHandThumb4
													{
														OFFSET 3.941010 -2.275345 2.275342
														CHANNELS 3 Xrotation Yrotation Zrotation
														End Site
														{
															OFFSET 0.000000 0.000000 0.000000
														}
													}
												}
											}
										}
										JOINT LeftHandIndex1
										{
											OFFSET 24.424698 -1.985611 5.953459
											CHANNELS 3 Xrotation Yrotation Zrotation
											JOINT LeftHandIndex2
											{
												OFFSET 6.426697 0.000000 0.000000
												CHANNELS 3 Xrotation Yrotation Zrotation
												JOINT LeftHandIndex3
												{
													OFFSET 5.337898 0.000000 0.000000
													CHANNELS 3 Xrotation Yrotation Zrotation
													JOINT LeftHandIndex4
													{
														OFFSET 4.409401 0.000000 0.000000
														CHANNELS 3 Xrotation Yrotation Zrotation
														End Site
														{
															OFFSET 0.000000 0.000000 0.000000
														}
													}
												}
											}
										}
										JOINT LeftHandMiddle1
										{
											OFFSET 23.810104 0.000000 0.000000
											CHANNELS 3 Xrotation Yrotation Zrotation
											JOINT LeftHandMiddle2
											{
												OFFSET 7.176498 0.000000 0.000000
												CHANNELS 3 Xrotation Yrotation Zrotation
												JOINT LeftHandMiddle3
												{
													OFFSET 6.774902 0.000000 0.000000
													CHANNELS 3 Xrotation Yrotation Zrotation
													JOINT LeftHandMiddle4
													{
														OFFSET 5.403328 0.000000 0.000000
														CHANNELS 3 Xrotation Yrotation Zrotation
														End Site
														{
															OFFSET 0.000000 0.000000 0.000000
														}
													}
												}
											}
										}
										JOINT LeftHandRing1
										{
											OFFSET 22.908401 -0.839279 -6.020567
											CHANNELS 3 Xrotation Yrotation Zrotation
											JOINT LeftHandRing2
											{
												OFFSET 6.337502 0.000000 0.000000
												CHANNELS 3 Xrotation Yrotation Zrotation
												JOINT LeftHandRing3
												{
													OFFSET 5.779297 0.000000 0.000000
													CHANNELS 3 Xrotation Yrotation Zrotation
													JOINT LeftHandRing4
													{
														OFFSET 4.965698 0.000000 0.000000
														CHANNELS 3 Xrotation Yrotation Zrotation
														End Site
														{
															OFFSET 0.000000 0.000000 0.000000
														}
													}
												}
											}
										}
										JOINT LeftHandPinky1
										{
											OFFSET 20.037003 -1.530319 -10.950146
											CHANNELS 3 Xrotation Yrotation Zrotation
											JOINT LeftHandPinky2
											{
												OFFSET 5.254700 0.000000 0.000000
												CHANNELS 3 Xrotation Yrotation Zrotation
												JOINT LeftHandPinky3
												{
													OFFSET 4.810204 0.000000 0.000000
													CHANNELS 3 Xrotation Yrotation Zrotation
													JOINT LeftHandPinky4
													{
														OFFSET 3.647202 0.000000 0.000000
														CHANNELS 3 Xrotation Yrotation Zrotation
														End Site
														{
															OFFSET 0.000000 0.000000 0.000000
														}
													}
												}
											}
										}
									}
								}
							}
						}
					}
					JOINT RightShoulder
					{
						OFFSET -7.570500 7.247704 -3.868750
						CHANNELS 3 Xrotation Yrotation Zrotation
						JOINT RightShoulder_split
						{
							OFFSET -7.570500 7.247704 -3.868750
							CHANNELS 3 Xrotation Yrotation Zrotation
							JOINT RightArm
							{
								OFFSET -9.308998 -2.777710 0.208500
								CHANNELS 3 Xrotation Yrotation Zrotation
								JOINT RightForeArm
								{
									OFFSET -29.972300 0.000000 0.000000
									CHANNELS 3 Xrotation Yrotation Zrotation
									JOINT RightHand
									{
										OFFSET -26.026505 0.000000 0.000000
										CHANNELS 3 Xrotation Yrotation Zrotation
										JOINT RightHandThumb1
										{
											OFFSET -12.240601 -7.148026 9.207092
											CHANNELS 3 Xrotation Yrotation Zrotation
											JOINT RightHandThumb2
											{
												OFFSET -4.138618 -2.389435 2.389433
												CHANNELS 3 Xrotation Yrotation Zrotation
												JOINT RightHandThumb3
												{
													OFFSET -2.726974 -1.574417 1.574421
													CHANNELS 3 Xrotation Yrotation Zrotation
													JOINT RightHandThumb4
													{
														OFFSET -3.941010 -2.275345 2.275343
														CHANNELS 3 Xrotation Yrotation Zrotation
														End Site
														{
															OFFSET 0.000000 0.000000 0.000000
														}
													}
												}
											}
										}
										JOINT RightHandIndex1
										{
											OFFSET -24.424698 -1.985657 5.953444
											CHANNELS 3 Xrotation Yrotation Zrotation
											JOINT RightHandIndex2
											{
												OFFSET -6.426697 0.000000 0.000000
												CHANNELS 3 Xrotation Yrotation Zrotation
												JOINT RightHandIndex3
												{
													OFFSET -5.337898 0.000000 0.000000
													CHANNELS 3 Xrotation Yrotation Zrotation
													JOINT RightHandIndex4
													{
														OFFSET -4.409401 0.000000 0.000000
														CHANNELS 3 Xrotation Yrotation Zrotation
														End Site
														{
															OFFSET 0.000000 0.000000 0.000000
														}
													}
												}
											}
										}
										JOINT RightHandMiddle1
										{
											OFFSET -23.810097 0.000000 0.000000
											CHANNELS 3 Xrotation Yrotation Zrotation
											JOINT RightHandMiddle2
											{
												OFFSET -7.176498 0.000000 0.000000
												CHANNELS 3 Xrotation Yrotation Zrotation
												JOINT RightHandMiddle3
												{
													OFFSET -6.774902 0.000000 0.000000
													CHANNELS 3 Xrotation Yrotation Zrotation
													JOINT RightHandMiddle4
													{
														OFFSET -5.403328 0.000000 0.000000
														CHANNELS 3 Xrotation Yrotation Zrotation
														End Site
														{
															OFFSET 0.000000 0.000000 0.000000
														}
													}
												}
											}
										}
										JOINT RightHandRing1
										{
											OFFSET -22.908302 -0.839325 -6.020576
											CHANNELS 3 Xrotation Yrotation Zrotation
											JOINT RightHandRing2
											{
												OFFSET -6.337502 0.000000 0.000000
												CHANNELS 3 Xrotation Yrotation Zrotation
												JOINT RightHandRing3
												{
													OFFSET -5.779297 0.000000 0.000000
													CHANNELS 3 Xrotation Yrotation Zrotation
													JOINT RightHandRing4
													{
														OFFSET -4.965698 0.000000 0.000000
														CHANNELS 3 Xrotation Yrotation Zrotation
														End Site
														{
															OFFSET 0.000000 0.000000 0.000000
														}
													}
												}
											}
										}
										JOINT RightHandPinky1
										{
											OFFSET -20.037003 -1.530334 -10.950259
											CHANNELS 3 Xrotation Yrotation Zrotation
											JOINT RightHandPinky2
											{
												OFFSET -5.254700 0.000000 0.000000
												CHANNELS 3 Xrotation Yrotation Zrotation
												JOINT RightHandPinky3
												{
													OFFSET -4.810204 0.000000 0.000000
													CHANNELS 3 Xrotation Yrotation Zrotation
													JOINT RightHandPinky4
													{
														OFFSET -3.647202 0.000000 0.000000
														CHANNELS 3 Xrotation Yrotation Zrotation
														End Site
														{
															OFFSET 0.000000 0.000000 0.000000
														}
													}
												}
											}
										}
									}
								}
							}
						}
					}
				}
			}
		}
	}
	JOINT LeftUpLeg
	{
		OFFSET 15.427100 -6.655098 0.678600
		CHANNELS 3 Xrotation Yrotation Zrotation
		JOINT LeftLeg
		{
			OFFSET 4.081073 -39.591068 13.024000
			CHANNELS 3 Xrotation Yrotation Zrotation
			JOINT LeftFoot
			{
				OFFSET -4.081074 -37.707932 -15.979700
				CHANNELS 3 Xrotation Yrotation Zrotation
				JOINT LeftToeBase
				{
					OFFSET 5.346399 -15.068900 20.645000
					CHANNELS 3 Xrotation Yrotation Zrotation
					JOINT LeftToe_End
					{
						OFFSET 2.754700 0.931300 11.300900
						CHANNELS 3 Xrotation Yrotation Zrotation
						End Site
						{
							OFFSET 0.000000 0.000000 0.000000
						}
					}
				}
			}
		}
	}
	JOINT RightUpLeg
	{
		OFFSET -15.569500 -6.655098 0.678600
		CHANNELS 3 Xrotation Yrotation Zrotation
		JOINT RightLeg
		{
			OFFSET -4.081825 -39.591045 13.023800
			CHANNELS 3 Xrotation Yrotation Zrotation
			JOINT RightFoot
			{
				OFFSET 4.081824 -37.707954 -15.979600
				CHANNELS 3 Xrotation Yrotation Zrotation
				JOINT RightToeBase
				{
					OFFSET -5.346400 -15.068900 20.645000
					CHANNELS 3 Xrotation Yrotation Zrotation
					JOINT RightToe_End
					{
						OFFSET -2.754700 0.931300 11.300900
						CHANNELS 3 Xrotation Yrotation Zrotation
						End Site
						{
							OFFSET 0.000000 0.000000 0.000000
						}
					}
				}
			}
		}
	}
}
MOTION
Frames: 4
Frame Time: 0.016667
0.190734 75.645805 -2.955681 -14.106247 4.441282 -0.223178 20.016339 0.036964 0.683602 6.967313 -0.338753 0.679832 0.000000 0.000000 0.000000 6.967509 -0.337003 0.677442 -12.249465 -1.248219 -0.496002 -16.116683 -1.754210 -0.002246 -0.000000 -0.000000 0.000000 3.082220 -9.945128 -6.811324 0.000000 0.000000 0.000000 -13.959246 -7.908228 -60.295243 69.634188 -63.509107 71.597035 17.167906 -2.491256 -13.648294 2.689274 3.159870 6.593315 -0.080959 21.143662 -2.540005 0.000005 -0.000017 0.000001 0.000000 -0.000001 0.000003 -10.621192 2.937290 -19.267718 1.676657 6.185719 -21.756494 0.000001 0.000001 0.000001 -0.000000 0.000001 -0.000001 -13.823037 9.936953 -22.469224 6.049001 4.246399 -31.221966 0.000004 0.000001 -0.000002 -0.000001 0.000002 0.000001 -10.744661 8.325274 -36.571073 3.038176 0.221618 -39.078729 -0.000001 -0.000002 0.000002 -0.000001 0.000000 -0.000000 -11.942432 9.095544 -39.265463 4.640682 -6.164089 -45.289304 -0.000006 0.000000 -0.000004 0.000000 -0.000001 0.000001 8.709551 -2.418517 18.823131 0.000000 0.000000 0.000000 -21.494476 12.934322 56.855495 76.344173 65.517019 -70.724587 6.442920 -2.140723 3.544939 2.153177 -3.555306 -6.484357 -0.079148 -21.145999 2.540880 -0.000000 0.000002 -0.000002 0.000003 0.000001 0.000001 -10.621246 -2.937083 19.269089 1.668986 -6.188791 21.755262 0.000006 -0.000008 0.000001 -0.000000 -0.000002 -0.000002 -13.688468 -10.244134 24.164190 6.044756 -4.250324 31.223349 -0.000003 -0.000012 0.000005 -0.000001 0.000000 0.000001 -10.744605 -8.325826 36.570001 3.037664 -0.220790 39.079306 0.000003 0.000009 0.000000 -0.000002 0.000000 0.000000 -11.872867 -9.179252 39.251994 4.640914 6.162579 45.288843 0.000011 0.000007 0.000004 0.000001 -0.000002 -0.000001 -18.293777 -3.900096 17.148047 56.015051 -1.853695 -0.410165 -22.838997 -0.431895 -14.110440 -0.000078 -0.000000 0.000001 -0.000000 -0.000000 -0.000000 -12.311045 -8.596145 -18.452634 55.363611 1.752835 0.303701 -27.403952 -5.066995 12.941147 -0.000045 0.000003 0.000001 0.000000 0.000002 -0.000000 
0.207436 75.583466 -2.914566 -14.111517 4.466226 -0.250716 20.015466 0.042061 0.702124 6.967180 -0.335988 0.689695 0.000000 0.000000 0.000000 6.967396 -0.333837 0.687154 -12.402452 -1.254038 -0.550726 -15.969515 -1.766949 -0.026611 -0.000000 -0.000000 -0.000000 2.956827 -10.038397 -7.341125 0.000000 0.000000 0.000000 -14.073636 -7.895408 -59.003668 69.357224 -63.656079 70.461188 17.123233 -2.624928 -13.215292 2.689258 3.159882 6.593333 -0.287842 20.662220 -2.531893 0.000003 -0.000017 -0.000002 0.000001 -0.000000 0.000001 -11.138170 2.712238 -18.389680 1.552177 5.861873 -19.735862 -0.000001 -0.000000 0.000001 -0.000001 0.000001 0.000000 -13.879078 10.042378 -21.846831 5.907010 4.051375 -29.917222 0.000004 -0.000004 -0.000002 -0.000002 0.000002 0.000000 -10.653135 8.348585 -36.293330 2.916221 0.076517 -38.156766 -0.000001 -0.000001 0.000004 -0.000001 -0.000003 0.000000 -11.616287 8.724532 -38.572995 4.514722 -6.309758 -43.933358 -0.000005 -0.000002 -0.000002 0.000001 0.000000 0.000000 8.710152 -2.421086 18.860186 0.000000 0.000000 0.000000 -21.489472 12.863793 56.693678 76.539353 65.641820 -70.847496 6.461547 -2.179885 3.507916 2.153200 -3.555320 -6.484360 -0.610704 -20.410521 2.900133 0.000001 0.000000 -0.000003 0.000003 0.000000 0.000002 -10.520683 -3.668415 20.527768 1.742403 -6.421439 23.270926 0.000004 -0.000008 -0.000001 -0.000001 0.000005 -0.000001 -12.798059 -11.730791 26.093208 7.096435 -4.803692 37.106379 -0.000007 -0.000008 0.000004 -0.000001 0.000000 0.000001 -10.279120 -10.017705 38.435640 3.702687 -0.867335 43.457748 0.000004 0.000012 0.000001 -0.000001 -0.000001 -0.000002 -11.226703 -10.556365 39.654180 5.236493 5.736001 47.984777 0.000011 0.000008 0.000004 -0.000002 -0.000002 -0.000000 -18.319682 -3.925783 17.194014 56.148909 -1.844063 -0.412358 -22.943654 -0.473165 -14.125197 -0.000078 0.000000 0.000001 -0.000000 0.000000 -0.000000 -12.290178 -8.611428 -18.459640 55.443979 1.761129 0.305374 -27.489367 -5.073321 12.969696 -0.000045 0.000003 0.000001 0.000000 -0.000000 0.000000 
0.238631 75.478027 -2.841143 -14.124893 4.540738 -0.301183 20.011271 0.052396 0.739626 6.966029 -0.327721 0.719249 0.000000 0.000000 0.000000 6.966379 -0.324709 0.716456 -12.555792 -1.289426 -0.611312 -15.824416 -1.789684 -0.122986 -0.000001 0.000000 0.000000 2.764794 -10.227419 -8.150477 0.000000 0.000000 0.000000 -14.313654 -7.958067 -56.721852 68.594374 -63.723363 67.966400 16.833732 -3.061360 -12.252577 2.689275 3.159869 6.593336 -0.630845 19.898832 -2.536166 0.000003 -0.000016 0.000001 -0.000001 0.000001 -0.000000 -12.168910 1.722895 -16.142751 1.361314 5.271972 -16.144856 -0.000003 -0.000002 0.000005 0.000000 0.000001 -0.000002 -13.999951 10.170334 -20.576855 5.654360 3.687281 -27.544194 0.000005 -0.000003 -0.000002 -0.000000 0.000000 0.000000 -10.488804 8.375475 -35.525740 2.674432 -0.231041 -36.299631 -0.000000 0.000001 0.000001 0.000000 -0.000002 0.000001 -11.042166 8.059832 -37.136169 4.281184 -6.560044 -41.506199 -0.000006 -0.000002 -0.000007 0.000001 -0.000000 -0.000002 8.718468 -2.429203 18.921154 0.000000 0.000000 0.000000 -21.496052 12.656107 56.308288 77.004126 65.942580 -71.153195 6.484103 -2.258955 3.402536 2.153196 -3.555321 -6.484345 -1.483769 -19.373490 3.562840 0.000001 0.000001 -0.000002 0.000001 0.000000 0.000003 -10.129359 -5.075105 23.066153 1.897910 -6.845652 26.077666 0.000005 -0.000010 0.000000 -0.000001 -0.000001 0.000001 -11.051828 -14.266145 29.928291 8.898227 -5.409244 45.950760 -0.000004 -0.000001 0.000005 0.000001 0.000001 0.000000 -9.577506 -12.642713 41.718567 4.859887 -1.754938 50.235386 0.000005 0.000009 0.000001 -0.000001 0.000001 0.000001 -10.193560 -12.691869 40.965152 6.310992 5.065906 52.618056 0.000007 0.000001 0.000000 0.000002 -0.000002 -0.000002 -18.376045 -3.974329 17.267285 56.380053 -1.860114 -0.413835 -23.116611 -0.539575 -14.125254 -0.000078 0.000000 0.000001 -0.000000 0.000000 -0.000000 -12.227744 -8.657286 -18.467935 55.569528 1.771846 0.308958 -27.640847 -5.098614 13.025078 -0.000045 0.000003 0.000001 -0.000000 0.000000 -0.000000 
0.270506 75.383621 -2.774015 -14.144745 4.651868 -0.345850 20.004345 0.066123 0.776426 6.959312 -0.313090 0.767879 0.000000 0.000000 0.000000 6.959682 -0.306489 0.764834 -12.549954 -1.367070 -0.625489 -15.846495 -1.813089 -0.313113 0.000000 0.000000 0.000000 2.605476 -10.449068 -8.667083 0.000000 0.000000 0.000000 -14.613391 -8.282415 -54.611986 67.543898 -63.362565 64.922744 16.132883 -3.862285 -11.017638 2.689266 3.159895 6.593349 -0.900180 19.338159 -2.567404 0.000004 -0.000017 0.000000 -0.000002 0.000001 -0.000001 -13.757847 -1.808878 -12.928988 1.209591 4.688506 -12.660389 0.000000 0.000001 0.000002 0.000003 -0.000000 -0.000001 -14.161526 10.155877 -19.030989 5.407137 3.296447 -25.125387 0.000005 -0.000001 -0.000000 -0.000001 0.000001 -0.000001 -10.326085 8.356977 -34.230907 2.383930 -0.635119 -34.078792 0.000000 0.000003 0.000002 0.000000 0.000000 0.000000 -10.519305 7.413643 -35.362526 4.024514 -6.770204 -39.148640 -0.000005 0.000002 -0.000002 0.000001 -0.000001 -0.000001 8.730917 -2.444813 18.974038 0.000000 0.000000 0.000000 -21.553770 12.391526 55.888911 77.539094 66.277301 -71.520646 6.490338 -2.336610 3.273599 2.153186 -3.555308 -6.484347 -2.139604 -18.745796 4.295036 -0.000001 0.000001 0.000001 -0.000000 -0.000002 0.000001 -9.428682 -6.650074 26.075068 2.076142 -7.264204 28.901963 0.000004 -0.000004 0.000002 -0.000002 -0.000000 -0.000001 -8.933261 -16.558101 34.446495 9.998495 -5.648547 51.048906 -0.000005 -0.000007 0.000005 0.000000 0.000000 0.000000 -9.304919 -14.241872 44.634590 5.737652 -2.268979 54.937722 0.000002 0.000009 -0.000002 -0.000002 0.000003 0.000001 -9.441458 -13.995633 43.355831 7.329734 4.554852 56.877973 0.000007 0.000007 0.000002 0.000001 0.000003 0.000001 -18.424143 -4.084068 17.300688 56.592755 -1.875142 -0.415001 -23.265873 -0.570541 -14.122170 -0.000078 0.000000 0.000001 0.000000 0.000000 -0.000000 -12.135221 -8.712436 -18.467909 55.670662 1.782250 0.312901 -27.784296 -5.159938 13.080051 -0.000045 0.000003 0.000001 -0.000000 0.000000 0.000000 
